<?xml version="1.0" standalone="no"?>
<!DOCTYPE svg PUBLIC "-//W3C//DTD SVG 20010904//EN"
 "http://www.w3.org/TR/2001/REC-SVG-20010904/DTD/svg10.dtd">
<svg version="1.0" xmlns="http://www.w3.org/2000/svg"
 width="688.000000pt" height="688.000000pt" viewBox="0 0 688.000000 688.000000"
 preserveAspectRatio="xMidYMid meet">
<metadata>
Created by potrace 1.14, written by Peter Selinger 2001-2017
</metadata>
<g transform="translate(0.000000,688.000000) scale(0.100000,-0.100000)"
fill="#000000" stroke="none">
<path d="M564 6845 c-243 -53 -427 -218 -511 -460 l-28 -80 -2 -2840 c-2
-3054 -4 -2890 49 -3021 65 -161 210 -307 370 -371 139 -57 -42 -54 3028 -51
l2825 3 69 23 c249 85 405 255 473 517 4 17 9 1303 10 2860 2 2502 0 2837 -13
2894 -59 249 -224 430 -469 512 l-70 24 -2835 2 c-2337 1 -2846 -1 -2896 -12z"/>
</g>
</svg>
